<svg xmlns="http://www.w3.org/2000/svg" width="30" height="30" viewBox="0 0 30 30" fill="none">
<path d="M14.9993 24.2881L8.33415 28.4921C8.0397 28.6883 7.73187 28.7724 7.41066 28.7444C7.08945 28.7163 6.80839 28.6042 6.56748 28.4081C6.32657 28.2119 6.13919 27.9669 6.00536 27.6732C5.87152 27.3795 5.84475 27.0499 5.92505 26.6844L7.69172 18.7388L1.78944 13.3997C1.52176 13.1474 1.35473 12.8599 1.28835 12.537C1.22196 12.2141 1.24177 11.8991 1.34777 11.5919C1.45377 11.2847 1.61438 11.0325 1.82959 10.8352C2.0448 10.6379 2.33925 10.5118 2.71292 10.4568L10.5023 9.74215L13.5137 2.25897C13.6475 1.92265 13.8553 1.6704 14.1369 1.50224C14.4185 1.33408 14.7059 1.25 14.9993 1.25C15.2927 1.25 15.5802 1.33408 15.8618 1.50224C16.1434 1.6704 16.3511 1.92265 16.4849 2.25897L19.4963 9.74215L27.2857 10.4568C27.6605 10.5129 27.9549 10.639 28.169 10.8352C28.3832 11.0314 28.5438 11.2836 28.6509 11.5919C28.7579 11.9002 28.7783 12.2158 28.7119 12.5387C28.6455 12.8615 28.4779 13.1485 28.2092 13.3997L22.3069 18.7388L24.0736 26.6844C24.1539 27.0487 24.1271 27.3783 23.9933 27.6732C23.8594 27.968 23.6721 28.213 23.4312 28.4081C23.1902 28.6031 22.9092 28.7152 22.588 28.7444C22.2668 28.7735 21.9589 28.6894 21.6645 28.4921L14.9993 24.2881Z" fill="#D4A03F"/>
</svg>