<svg width="16" height="16" viewBox="0 0 16 16" fill="none" xmlns="http://www.w3.org/2000/svg">
<g clip-path="url(#clip0_212_110)">
<path d="M14.3151 1.68496H3.41133C3.18802 1.68496 2.97385 1.59625 2.81595 1.43835C2.65805 1.28044 2.56934 1.06628 2.56934 0.84297C2.56934 0.619659 2.65805 0.405495 2.81595 0.247591C2.97385 0.0896865 3.18802 0.000976562 3.41133 0.000976562H15.1571C15.3804 0.000976562 15.5946 0.0896865 15.7525 0.247591C15.9104 0.405495 15.9991 0.619659 15.9991 0.84297V12.6309C15.9991 12.8542 15.9104 13.0684 15.7525 13.2263C15.5946 13.3842 15.3804 13.4729 15.1571 13.4729C14.9338 13.4729 14.7197 13.3842 14.5618 13.2263C14.4039 13.0684 14.3151 12.8542 14.3151 12.6309V1.68496Z" fill="#F33128"/>
<path d="M14.5608 0.246925C14.7189 0.0888216 14.9334 0 15.1569 0C15.3805 0 15.595 0.0888216 15.7531 0.246925C15.9112 0.405029 16 0.619464 16 0.843057C16 1.06665 15.9112 1.28108 15.7531 1.43919L1.43919 15.7531C1.3609 15.8314 1.26797 15.8935 1.16568 15.9358C1.0634 15.9782 0.953769 16 0.843057 16C0.732345 16 0.622717 15.9782 0.520433 15.9358C0.418149 15.8935 0.325211 15.8314 0.246925 15.7531C0.16864 15.6748 0.106542 15.5819 0.064174 15.4796C0.0218064 15.3773 0 15.2677 0 15.1569C0 15.0462 0.0218064 14.9366 0.064174 14.8343C0.106542 14.732 0.16864 14.6391 0.246925 14.5608L14.5608 0.246925Z" fill="#F33128"/>
</g>
<defs>
<clipPath id="clip0_212_110">
<rect width="16" height="16" fill="white"/>
</clipPath>
</defs>
</svg>
