<svg width="14" height="13" viewBox="0 0 14 13" fill="none" xmlns="http://www.w3.org/2000/svg">
<path d="M6.09478 0.345604C6.24446 -0.115052 6.89616 -0.11505 7.04584 0.345605L8.25417 4.06445C8.32111 4.27046 8.51308 4.40994 8.7297 4.40994H12.6399C13.1243 4.40994 13.3257 5.02975 12.9338 5.31445L9.77037 7.61283C9.59513 7.74015 9.5218 7.96583 9.58874 8.17184L10.7971 11.8907C10.9467 12.3513 10.4195 12.7344 10.0276 12.4497L6.8642 10.1513C6.68896 10.024 6.45166 10.024 6.27642 10.1513L3.11298 12.4497C2.72112 12.7344 2.19388 12.3513 2.34356 11.8907L3.55189 8.17184C3.61882 7.96583 3.54549 7.74015 3.37025 7.61283L0.206808 5.31445C-0.185049 5.02975 0.0163404 4.40994 0.500702 4.40994H4.41093C4.62754 4.40994 4.81952 4.27046 4.88646 4.06445L6.09478 0.345604Z" fill="#B2B2B2"/>
</svg>
