<svg width="21" height="20" viewBox="0 0 21 20" fill="none" xmlns="http://www.w3.org/2000/svg">
<path d="M8.00033 18.3333V14.1667C8.00033 13.3808 8.00033 12.9883 7.75616 12.7442C7.51199 12.5 7.11949 12.5 6.33366 12.5H5.91699C4.73783 12.5 4.14866 12.5 3.78366 12.8667C3.41699 13.2325 3.41699 13.8217 3.41699 15V18.3333H8.00033ZM8.00033 18.3333H13.0003M8.00033 18.3333V13.3333C8.00033 12.155 8.00033 11.5658 8.36699 11.2C8.73199 10.8333 9.32116 10.8333 10.5003 10.8333C11.6795 10.8333 12.2678 10.8333 12.6337 11.2C13.0003 11.5658 13.0003 12.155 13.0003 13.3333V18.3333M13.0003 18.3333H17.5837V16.6667C17.5837 15.4883 17.5837 14.8992 17.217 14.5333C16.8512 14.1667 16.262 14.1667 15.0837 14.1667H14.667C13.8812 14.1667 13.4887 14.1667 13.2445 14.4108C13.0003 14.655 13.0003 15.0475 13.0003 15.8333V18.3333ZM2.16699 18.3333H18.8337M11.0762 2.14834L11.6628 3.33168C11.7126 3.42034 11.7805 3.49754 11.862 3.55827C11.9435 3.619 12.037 3.6619 12.1362 3.68418L13.1995 3.86168C13.8795 3.97584 14.0395 4.47334 13.5495 4.96418L12.7228 5.79751C12.6504 5.87955 12.5972 5.97676 12.5672 6.08203C12.5372 6.18729 12.5312 6.29794 12.5495 6.40584L12.7862 7.43751C12.9728 8.25418 12.5428 8.57001 11.8262 8.14334L10.8295 7.54834C10.7275 7.49545 10.6144 7.46785 10.4995 7.46785C10.3846 7.46785 10.2715 7.49545 10.1695 7.54834L9.17283 8.14334C8.45949 8.57001 8.02616 8.25084 8.21283 7.43751L8.44949 6.40584C8.46783 6.29794 8.46178 6.18729 8.43179 6.08203C8.40179 5.97676 8.34862 5.87955 8.27616 5.79751L7.45033 4.96418C6.96366 4.47334 7.12033 3.97584 7.80033 3.86168L8.86283 3.68418C8.9615 3.66138 9.0543 3.61815 9.13525 3.5573C9.21621 3.49644 9.28351 3.4193 9.33283 3.33084L9.91949 2.14751C10.2395 1.50584 10.7595 1.50584 11.0762 2.14751" stroke="#101416" stroke-width="1.25" stroke-linecap="round" stroke-linejoin="round"/>
</svg>
