<svg width="30" height="30" viewBox="0 0 30 30" fill="none" xmlns="http://www.w3.org/2000/svg">
<path d="M25 2.5H5C3.625 2.5 2.5 3.625 2.5 5V24.4875C2.5 25.6 3.85 26.1625 4.6375 25.375L7.5 22.5H25C26.375 22.5 27.5 21.375 27.5 20V5C27.5 3.625 26.375 2.5 25 2.5ZM16.9625 14.4625L15.5625 17.5125C15.5128 17.6216 15.4327 17.7141 15.3319 17.779C15.231 17.8439 15.1137 17.8784 14.9937 17.8784C14.8738 17.8784 14.7565 17.8439 14.6556 17.779C14.5548 17.7141 14.4747 17.6216 14.425 17.5125L13.025 14.4625L9.975 13.0625C9.86588 13.0128 9.77337 12.9327 9.7085 12.8319C9.64362 12.731 9.60913 12.6137 9.60913 12.4937C9.60913 12.3738 9.64362 12.2565 9.7085 12.1556C9.77337 12.0548 9.86588 11.9747 9.975 11.925L13.025 10.525L14.425 7.475C14.4747 7.36588 14.5548 7.27337 14.6556 7.2085C14.7565 7.14362 14.8738 7.10913 14.9937 7.10913C15.1137 7.10913 15.231 7.14362 15.3319 7.2085C15.4327 7.27337 15.5128 7.36588 15.5625 7.475L16.9625 10.525L20.0125 11.925C20.1216 11.9747 20.2141 12.0548 20.279 12.1556C20.3439 12.2565 20.3784 12.3738 20.3784 12.4937C20.3784 12.6137 20.3439 12.731 20.279 12.8319C20.2141 12.9327 20.1216 13.0128 20.0125 13.0625L16.9625 14.4625Z" fill="#E6342C"/>
</svg>
