<svg width="10" height="14" viewBox="0 0 10 14" fill="none" xmlns="http://www.w3.org/2000/svg">
<path d="M5 0C5.70636 0 6.39686 0.205271 6.98418 0.589856C7.5715 0.974441 8.02926 1.52107 8.29957 2.16061C8.56988 2.80015 8.64061 3.50388 8.5028 4.18282C8.365 4.86175 8.02485 5.48539 7.52538 5.97487C7.02591 6.46436 6.38954 6.7977 5.69675 6.93275C5.00396 7.0678 4.28587 6.99849 3.63327 6.73358C2.98068 6.46867 2.4229 6.02007 2.03047 5.4445C1.63803 4.86892 1.42857 4.19223 1.42857 3.5L1.43214 3.3481C1.47209 2.44703 1.86543 1.59584 2.53016 0.972062C3.19489 0.348279 4.07967 5.21097e-05 5 0ZM6.42857 8.4C7.37577 8.4 8.28418 8.76875 8.95395 9.42513C9.62373 10.0815 10 10.9717 10 11.9V12.6C10 12.9713 9.84949 13.3274 9.58158 13.5899C9.31367 13.8525 8.95031 14 8.57143 14H1.42857C1.04969 14 0.686328 13.8525 0.418419 13.5899C0.15051 13.3274 0 12.9713 0 12.6V11.9C0 10.9717 0.376274 10.0815 1.04605 9.42513C1.71582 8.76875 2.62423 8.4 3.57143 8.4H6.42857Z" fill="#B2B2B2"/>
</svg>
