<svg width="40" height="40" viewBox="0 0 40 40" fill="none" xmlns="http://www.w3.org/2000/svg">
<circle cx="20" cy="20" r="20" fill="#C23131"/>
<g clip-path="url(#clip0_620_765)">
<path fill-rule="evenodd" clip-rule="evenodd" d="M20.0091 22.1536L25.3973 27.5357C25.6833 27.8213 26.0711 27.9818 26.4754 27.9818C26.8797 27.9818 27.2675 27.8213 27.5535 27.5357C27.8394 27.2501 28 26.8628 28 26.4589C28 26.055 27.8394 25.6677 27.5535 25.3821L22.1632 20L27.5524 14.6179C27.6939 14.4765 27.8062 14.3086 27.8827 14.1239C27.9593 13.9392 27.9987 13.7412 27.9986 13.5412C27.9986 13.3413 27.9591 13.1433 27.8825 12.9586C27.8058 12.7739 27.6935 12.6061 27.5519 12.4648C27.4104 12.3234 27.2423 12.2113 27.0574 12.1348C26.8724 12.0584 26.6742 12.019 26.474 12.0191C26.2739 12.0191 26.0757 12.0586 25.8908 12.1351C25.7058 12.2117 25.5378 12.3239 25.3963 12.4653L20.0091 17.8474L14.6209 12.4653C14.4804 12.3198 14.3122 12.2037 14.1263 12.1239C13.9404 12.044 13.7404 12.0019 13.5381 12.0001C13.3357 11.9982 13.135 12.0366 12.9476 12.1131C12.7603 12.1896 12.5901 12.3025 12.4469 12.4454C12.3037 12.5883 12.1905 12.7582 12.1138 12.9452C12.037 13.1323 11.9984 13.3327 12.0001 13.5349C12.0017 13.737 12.0437 13.9368 12.1235 14.1226C12.2032 14.3083 12.3193 14.4764 12.4648 14.6169L17.855 20L12.4658 25.3831C12.3203 25.5236 12.2043 25.6917 12.1245 25.8774C12.0447 26.0632 12.0027 26.263 12.0011 26.4651C11.9994 26.6673 12.0381 26.8677 12.1148 27.0548C12.1915 27.2418 12.3048 27.4117 12.4479 27.5546C12.5911 27.6975 12.7613 27.8104 12.9487 27.8869C13.136 27.9634 13.3367 28.0018 13.5391 27.9999C13.7415 27.9981 13.9414 27.956 14.1273 27.8761C14.3132 27.7963 14.4814 27.6802 14.6219 27.5347L20.0091 22.1536Z" fill="white"/>
</g>
<defs>
<clipPath id="clip0_620_765">
<rect width="16" height="16" fill="white" transform="translate(12 12)"/>
</clipPath>
</defs>
</svg>
