<svg width="14" height="14" viewBox="0 0 14 14" fill="none" xmlns="http://www.w3.org/2000/svg">
<path d="M12.5256 1.47446H2.98479C2.78939 1.47446 2.602 1.39684 2.46383 1.25868C2.32567 1.12051 2.24805 0.933117 2.24805 0.737721C2.24805 0.542324 2.32567 0.35493 2.46383 0.216764C2.602 0.0785977 2.78939 0.000976562 2.98479 0.000976562H13.2624C13.4578 0.000976562 13.6452 0.0785977 13.7833 0.216764C13.9215 0.35493 13.9991 0.542324 13.9991 0.737721V11.0521C13.9991 11.2475 13.9215 11.4349 13.7833 11.5731C13.6452 11.7113 13.4578 11.7889 13.2624 11.7889C13.067 11.7889 12.8796 11.7113 12.7414 11.5731C12.6032 11.4349 12.5256 11.2475 12.5256 11.0521V1.47446Z" fill="white"/>
<path d="M12.7407 0.21606C12.8791 0.0777189 13.0667 0 13.2623 0C13.458 0 13.6456 0.0777189 13.7839 0.21606C13.9223 0.354401 14 0.542031 14 0.737675C14 0.933318 13.9223 1.12095 13.7839 1.25929L1.25929 13.7839C1.19079 13.8524 1.10947 13.9068 1.01997 13.9438C0.930472 13.9809 0.834548 14 0.737675 14C0.640802 14 0.544878 13.9809 0.455379 13.9438C0.36588 13.9068 0.284559 13.8524 0.21606 13.7839C0.14756 13.7154 0.0932238 13.6341 0.0561522 13.5446C0.0190806 13.4551 0 13.3592 0 13.2623C0 13.1655 0.0190806 13.0695 0.0561522 12.98C0.0932238 12.8905 0.14756 12.8092 0.21606 12.7407L12.7407 0.21606Z" fill="white"/>
</svg>
